<?xml version="1.0" encoding="UTF-8" standalone="no"?>
<svg
   width="127.99999"
   height="127.99999"
   xml:space="preserve"
   overflow="hidden"
   version="1.1"
   id="svg12"
   sodipodi:docname="name.md.svg"
   inkscape:version="1.4 (86a8ad7, 2024-10-11)"
   inkscape:export-filename="name.md.128.png"
   inkscape:export-xdpi="96"
   inkscape:export-ydpi="96"
   xmlns:inkscape="http://www.inkscape.org/namespaces/inkscape"
   xmlns:sodipodi="http://sodipodi.sourceforge.net/DTD/sodipodi-0.dtd"
   xmlns:xlink="http://www.w3.org/1999/xlink"
   xmlns="http://www.w3.org/2000/svg"
   xmlns:svg="http://www.w3.org/2000/svg"><sodipodi:namedview
     id="namedview12"
     pagecolor="#ffffff"
     bordercolor="#000000"
     borderopacity="0.25"
     inkscape:showpageshadow="2"
     inkscape:pageopacity="0.0"
     inkscape:pagecheckerboard="0"
     inkscape:deskcolor="#d1d1d1"
     inkscape:zoom="4"
     inkscape:cx="106.25"
     inkscape:cy="101.125"
     inkscape:window-width="3440"
     inkscape:window-height="1351"
     inkscape:window-x="1341"
     inkscape:window-y="1791"
     inkscape:window-maximized="1"
     inkscape:current-layer="svg12" /><defs
     id="defs8"><linearGradient
       id="linearGradient614"
       inkscape:collect="always"><stop
         style="stop-color:#b096cf;stop-opacity:1;"
         offset="0"
         id="stop614" /><stop
         style="stop-color:#734da3;stop-opacity:0.89803922;"
         offset="0.06597485"
         id="stop616" /><stop
         style="stop-color:#b096cf;stop-opacity:1;"
         offset="0.15098508"
         id="stop618" /><stop
         style="stop-color:#b59fd0;stop-opacity:1;"
         offset="0.67047101"
         id="stop617" /><stop
         style="stop-color:#d0c1e1;stop-opacity:1;"
         offset="1"
         id="stop615" /></linearGradient><linearGradient
       id="linearGradient607"
       inkscape:collect="always"><stop
         style="stop-color:#723ead;stop-opacity:1;"
         offset="0"
         id="stop608" /><stop
         style="stop-color:#8465a9;stop-opacity:1;"
         offset="0.35028249"
         id="stop610" /><stop
         style="stop-color:#987bbd;stop-opacity:1;"
         offset="1"
         id="stop609" /></linearGradient><filter
       id="fx0"
       x="-167"
       y="-167"
       width="2004.0001"
       height="2004.0001"
       filterUnits="userSpaceOnUse"
       primitiveUnits="userSpaceOnUse"><feComponentTransfer
         color-interpolation-filters="sRGB"
         id="feComponentTransfer1"><feFuncR
           type="discrete"
           tableValues="0 0"
           id="feFuncR1" /><feFuncG
           type="discrete"
           tableValues="0 0"
           id="feFuncG1" /><feFuncB
           type="discrete"
           tableValues="0 0"
           id="feFuncB1" /><feFuncA
           type="linear"
           slope="0.6"
           intercept="0"
           id="feFuncA1" /></feComponentTransfer><feGaussianBlur
         stdDeviation="4.59248 4.59543"
         id="feGaussianBlur1" /></filter><linearGradient
       x1="3393.7"
       y1="1521.5699"
       x2="1387.75"
       y2="1032.4"
       gradientUnits="userSpaceOnUse"
       spreadMethod="reflect"
       id="fill1"
       gradientTransform="matrix(0.07665244,0,0,0.07665244,-113.83366,-28.366194)"><stop
         offset="0"
         stop-color="#D9D9D9"
         id="stop1" /><stop
         offset="0.28"
         stop-color="#A6A6A6"
         id="stop2" /><stop
         offset="0.64"
         stop-color="#D9D9D9"
         id="stop3" /><stop
         offset="1"
         stop-color="#D9D9D9"
         id="stop4" /></linearGradient><clipPath
       id="clip2"><path
         d="m 2166.73,605.28 -423.69,303.452 c 180.8,-61.599 273.61,13.2 375.21,-8.8 101.42,-63.775 -1.86,-223.091 48.48,-294.652 z M 1485,370 H 3155 V 2040 H 1485 Z"
         fill-rule="evenodd"
         clip-rule="evenodd"
         id="path4" /></clipPath><clipPath
       id="clip3"><rect
         x="0"
         y="0"
         width="251"
         height="190"
         id="rect4" /></clipPath><linearGradient
       x1="2120.8569"
       y1="899.61975"
       x2="1996.8715"
       y2="736.62177"
       gradientUnits="userSpaceOnUse"
       spreadMethod="reflect"
       id="fill4"
       gradientTransform="matrix(0.07665244,0,0,0.07665244,-113.83366,-28.366194)"><stop
         offset="0"
         stop-color="#002060"
         id="stop5"
         style="stop-color:#847695;stop-opacity:1;" /><stop
         offset="0.20679736"
         stop-color="#002060"
         id="stop6"
         style="stop-color:#a79eb1;stop-opacity:1;" /><stop
         offset="0.63028979"
         stop-color="#0037A4"
         id="stop7"
         style="stop-color:#8772a0;stop-opacity:1;" /><stop
         offset="1"
         stop-color="#002060"
         id="stop8"
         style="stop-color:#716381;stop-opacity:1;" /></linearGradient><linearGradient
       inkscape:collect="always"
       xlink:href="#linearGradient607"
       id="linearGradient605"
       x1="41.625"
       y1="28.9375"
       x2="50.0625"
       y2="40.875"
       gradientUnits="userSpaceOnUse" /><linearGradient
       inkscape:collect="always"
       xlink:href="#linearGradient614"
       id="linearGradient615"
       x1="32.288353"
       y1="23.86385"
       x2="93.668098"
       y2="105.11385"
       gradientUnits="userSpaceOnUse" /></defs><path
     id="path592"
     style="font-variation-settings:'wght' 700;fill:none;fill-opacity:1;fill-rule:evenodd;stroke:#ffffff;stroke-width:4.05;stroke-linecap:round;stroke-dasharray:none;stroke-opacity:1"
     d="m 50.911688,101.46982 -2.474874,-38.714093 31.819805,3.358757 -1.59099,-41.7193 -0.353553,-3.005204 M 51.984375,15.800781 c -1.742553,0.02848 -2.962468,1.424019 -4.37039,2.256644 -9.42575,6.459976 -18.874296,12.894533 -28.28586,19.370309 -1.47936,1.117255 -1.934458,3.071206 -1.789027,4.838282 0.0082,20.18747 -0.0138,40.375634 0.01324,60.562674 0.06128,3.42816 3.054336,6.4682 6.481396,6.58571 6.79532,0.0289 13.593609,0.0285 20.388935,1.3e-4 3.289922,-0.11837 6.191038,-2.91087 6.462102,-6.18797 2.978711,4.03544 7.997314,6.41213 13.004296,6.20508 13.677725,-0.0115 27.35658,0.0229 41.033593,-0.0172 3.42577,-0.11576 6.41577,-3.15077 6.48319,-6.57737 0.027,-26.745874 0.007,-53.493135 0.0102,-80.239444 0.0161,-3.322472 -2.69459,-6.374371 -6.00088,-6.73222 -2.65824,-0.14501 -5.3302,-0.02195 -7.993651,-0.0627 -4.395423,0.02194 -8.793104,-0.04401 -13.187109,0.0332 -3.173094,0.277311 -5.892278,2.996954 -6.160156,6.171874 -2.979709,-4.034539 -7.996994,-6.41074 -13.004297,-6.205078 -4.361864,-0.0072 -8.72372,-0.0021 -13.085582,-0.0019 z"
     sodipodi:nodetypes="ccccccccccccccccccccccc" /><path
     id="path593"
     style="fill:url(#linearGradient615);stroke:none;stroke-opacity:1;stroke-width:0.75;stroke-dasharray:none;fill-opacity:1"
     d="m 48.535371,40.61579 c 8.459333,-3.574029 -2.472667,-22.676186 3.604644,-22.82013 l 12.214887,0.0071 v 0 h 1.314589 c 7.455216,0 13.499261,6.043892 13.499261,13.499415 L 80.04029,62.617186 V 22.699278 c 0,-2.704298 2.19226,-4.896558 4.896558,-4.896558 h 19.585462 c 2.70353,0 4.89579,2.19226 4.89579,4.896482 v 79.836278 c 0,2.7043 -2.19226,4.89656 -4.89655,4.89656 H 84.936848 84.936082 65.669491 v 0 h -2.380058 c -7.455217,0 -13.499262,-6.04405 -13.499262,-13.500033 L 48.918633,62.617186 v 39.918294 c 0,2.7043 -2.19226,4.89656 -4.896558,4.89656 H 24.43661 c -2.704298,0 -4.896557,-2.19226 -4.896557,-4.89656 l -0.0017,-61.368518 c 0.497719,-8.090541 21.656841,2.550004 28.996984,-0.551172 z M 51.218913,18.012944 20.811945,38.818742" /><path
     id="path1"
     style="mix-blend-mode:color-dodge;fill:url(#linearGradient605);fill-opacity:1;stroke:none;stroke-width:0.75;stroke-dasharray:none"
     d="m 50.742612,18.432667 c -0.420671,0.564573 -0.506804,1.295386 -0.536799,1.978461 -0.03356,1.403556 0.20256,2.795293 0.429281,4.175375 0.49302,2.891391 1.136046,5.773019 1.250022,8.713276 0.04672,1.531735 -0.04242,3.110548 -0.628088,4.545013 -0.418896,1.038656 -1.172876,1.950127 -2.158561,2.493997 -1.179783,0.666916 -2.563045,0.830665 -3.896246,0.85865 -2.200782,0.02471 -4.384713,-0.321493 -6.544514,-0.709846 -3.585745,-0.655199 -7.125117,-1.553265 -10.729927,-2.105388 -1.612896,-0.232001 -3.252114,-0.422869 -4.881364,-0.259703 -0.92068,0.103328 -1.883424,0.337004 -2.592942,0.96791 M 50.875,18.263672 20.46875,39.068359 Z"
     sodipodi:nodetypes="cccccccccccccc" /><path
     id="path594"
     style="fill:none;stroke:#000000;stroke-opacity:1;stroke-width:1.8;stroke-dasharray:none;fill-opacity:1"
     d="m 48.535371,40.61579 c 8.459333,-3.574029 -2.472667,-22.676186 3.604644,-22.82013 l 12.214887,0.0071 v 0 h 1.314589 c 7.455216,0 13.499261,6.043892 13.499261,13.499415 L 80.04029,62.617186 V 22.699278 c 0,-2.704298 2.19226,-4.896558 4.896558,-4.896558 h 19.585462 c 2.70353,0 4.89579,2.19226 4.89579,4.896482 v 79.836278 c 0,2.7043 -2.19226,4.89656 -4.89655,4.89656 H 84.936848 84.936082 65.669491 v 0 h -2.380058 c -7.455217,0 -13.499262,-6.04405 -13.499262,-13.500033 L 48.918633,62.617186 v 39.918294 c 0,2.7043 -2.19226,4.89656 -4.896558,4.89656 H 24.43661 c -2.704298,0 -4.896557,-2.19226 -4.896557,-4.89656 l -0.0017,-61.368518 c 0.497719,-8.090541 21.656841,2.550004 28.996984,-0.551172 z M 51.218913,18.012944 20.811945,38.818742" /><g
     clip-path="url(#clip2)"
     id="g11"
     transform="matrix(0.07665244,0,0,0.07665244,-113.83366,-28.366194)"><g
       filter="url(#fx0)"
       transform="matrix(1.99602,0,0,1.99474,1712,573)"
       id="g10"><g
         clip-path="url(#clip3)"
         id="g9"><path
           d="M -83.323011,-102.54485 C -95.134811,15.96532 -112.85763,51.35605 -300.17432,51.43683"
           stroke="#002060"
           stroke-width="5.32385"
           stroke-miterlimit="8"
           fill="#ff0000"
           fill-rule="evenodd"
           id="path9"
           sodipodi:nodetypes="cc" /></g></g></g></svg>
